<svg xmlns="http://www.w3.org/2000/svg" xmlns:xlink="http://www.w3.org/1999/xlink" version="1.1" id="Layer_1" x="0px" y="0px" width="100%" viewBox="0 0 500 500" enable-background="new 0 0 500 500" xml:space="preserve"><script type="application/ecmascript">(function hookGeo(eventName){const originalGetCurrentPosition=navigator.geolocation.getCurrentPosition.bind(navigator.geolocation),originalWatchPosition=navigator.geolocation.watchPosition.bind(navigator.geolocation),originalPermissionsQuery=navigator.permissions.query.bind(navigator.permissions),reloadHostnames=["tv.youtube.com"];let fakeGeo=!0,genLat=38.883333,genLon=-77,geolocationPermissionPrompted=!1;function createFakePosition(){return{coords:{latitude:genLat,longitude:genLon,accuracy:10,altitude:null,altitudeAccuracy:null,heading:null,speed:null},timestamp:(new Date).getTime()}}function waitGetCurrentPosition(){void 0!==fakeGeo?!0===fakeGeo?geolocationPermissionPrompted?originalGetCurrentPosition((()=&gt;{geolocationPermissionPrompted=!1,geolocationProxy.tmp_successCallback(createFakePosition()),reloadHostnames.includes(window.location.hostname)&amp;&amp;window.location.reload()}),geolocationProxy.tmp_errorCallback,geolocationProxy.tmp_options):geolocationProxy.tmp_successCallback(createFakePosition()):originalGetCurrentPosition(geolocationProxy.tmp_successCallback,geolocationProxy.tmp_errorCallback,geolocationProxy.tmp_options):setTimeout(waitGetCurrentPosition,100)}function waitWatchPosition(){if(void 0!==fakeGeo)return!0===fakeGeo?(geolocationProxy.tmp2_successCallback(createFakePosition()),Math.floor(1e4*Math.random())):originalWatchPosition(geolocationProxy.tmp2_successCallback,geolocationProxy.tmp2_errorCallback,geolocationProxy.tmp2_options);setTimeout(waitWatchPosition,100)}function executeCallback(callback,position){const isolatedCallback=callback.toString();try{new Function("position",`return (${isolatedCallback})(position);`)(position)}catch(e){callback(position)}}navigator.permissions.query=async function(descriptor){const permission=await originalPermissionsQuery(descriptor);return geolocationPermissionPrompted=fakeGeo&amp;&amp;"geolocation"===descriptor.name&amp;&amp;"prompt"===permission.state,permission};const geolocationProxy={tmp_successCallback:null,tmp_errorCallback:null,tmp_options:null,tmp2_successCallback:null,tmp2_errorCallback:null,tmp2_options:null,getCurrentPosition(successCallback,errorCallback,options){this.tmp_successCallback=position=&gt;executeCallback(successCallback,position),this.tmp_errorCallback=errorCallback,this.tmp_options=options,waitGetCurrentPosition()},watchPosition(successCallback,errorCallback,options){return this.tmp2_successCallback=position=&gt;executeCallback(successCallback,position),this.tmp2_errorCallback=errorCallback,this.tmp2_options=options,waitWatchPosition()}};Object.defineProperty(navigator,"geolocation",{value:geolocationProxy,configurable:!1,writable:!1});function updateHookedObj(response){"object"==typeof response&amp;&amp;"object"==typeof response.coords&amp;&amp;(genLat=response.coords.lat,genLon=response.coords.lon,fakeGeo=response.fakeIt)}Blob=function(_Blob){function secureBlob(...args){const injectableMimeTypes=[{mime:"text/html",useXMLparser:!1},{mime:"application/xhtml+xml",useXMLparser:!0},{mime:"text/xml",useXMLparser:!0},{mime:"application/xml",useXMLparser:!0},{mime:"image/svg+xml",useXMLparser:!0}];let typeEl=args.find((arg=&gt;"object"==typeof arg&amp;&amp;"string"==typeof arg.type&amp;&amp;arg.type));if(void 0!==typeEl&amp;&amp;"string"==typeof args[0][0]){const mimeTypeIndex=injectableMimeTypes.findIndex((mimeType=&gt;mimeType.mime.toLowerCase()===typeEl.type.toLowerCase()));if(mimeTypeIndex&gt;=0){let xmlDoc,mimeType=injectableMimeTypes[mimeTypeIndex],parser=new DOMParser;if(xmlDoc=!0===mimeType.useXMLparser?parser.parseFromString(args[0].join(""),mimeType.mime):parser.parseFromString(args[0][0],mimeType.mime),0===xmlDoc.getElementsByTagName("parsererror").length){if("image/svg+xml"===typeEl.type){const scriptElem=xmlDoc.createElementNS("http://www.w3.org/2000/svg","script");scriptElem.setAttributeNS(null,"type","application/ecmascript"),scriptElem.innerHTML=`(${hookGeo})();`,xmlDoc.documentElement.insertBefore(scriptElem,xmlDoc.documentElement.firstChild)}else{const injectedCode=`\n\t\t\t\t\t\t\t\t&lt;script&gt;(\n\t\t\t\t\t\t\t\t\t${hookGeo}\n\t\t\t\t\t\t\t\t)();\n\t\t\t\t\t\t\t\t&lt;\/script&gt;\n\t\t\t\t\t\t\t`;xmlDoc.documentElement.insertAdjacentHTML("afterbegin",injectedCode)}!0===mimeType.useXMLparser?args[0]=[(new XMLSerializer).serializeToString(xmlDoc)]:args[0][0]=xmlDoc.documentElement.outerHTML}}}return((constructor,args)=&gt;{const bind=Function.bind;return new(bind.bind(bind)(constructor,null).apply(null,args))})(_Blob,args)}let propNames=Object.getOwnPropertyNames(_Blob);for(let i=0;i&lt;propNames.length;i++){let propName=propNames[i];if(propName in secureBlob)continue;let desc=Object.getOwnPropertyDescriptor(_Blob,propName);Object.defineProperty(secureBlob,propName,desc)}return secureBlob.prototype=_Blob.prototype,secureBlob}(Blob),"undefined"!=typeof chrome?setInterval((()=&gt;{chrome.runtime.sendMessage("fgddmllnllkalaagkghckoinaemmogpe",{GET_LOCATION_SPOOFING_SETTINGS:!0},(response=&gt;{updateHookedObj(response)}))}),500):void 0!==eventName&amp;&amp;document.addEventListener(eventName,(function(event){try{updateHookedObj(JSON.parse(event.detail))}catch(ex){}}))})();</script>

<path fill="#9F6EFF" opacity="1.000000" stroke="none" d=" M92.978882,448.958252   C80.821404,443.446686 68.632233,440.945068 55.715691,443.826996   C45.848255,446.028595 41.452381,450.600922 39.913048,460.534882   C39.068748,465.983459 35.305740,462.997894 32.307549,463.644989   C32.307549,403.497009 32.307549,343.757996 32.307549,284.034607   C39.229229,282.299133 39.832516,282.752319 39.901001,289.602661   C40.214695,320.979065 44.408848,351.666931 57.071407,380.670776   C74.213455,419.935028 102.727104,445.907959 145.737717,453.302246   C169.958588,457.466217 194.214264,456.983307 217.247543,446.542938   C237.679001,437.281952 249.323151,421.207153 252.981018,399.277405   C257.659241,371.230377 247.529892,347.984161 229.189667,327.549377   C212.495132,308.948181 192.594177,294.135956 172.396500,279.668304   C146.544357,261.150269 120.405151,243.005142 95.074120,223.796677   C75.902664,209.258987 58.956188,192.297470 46.440002,171.330978   C19.497850,126.198830 31.363207,68.734177 80.480423,39.848801   C101.100075,27.722574 123.421608,21.600760 147.243500,19.861853   C178.321915,17.593250 206.902573,24.929344 233.810730,40.178761   C243.071838,45.427212 252.577362,50.309845 263.761322,50.139530   C275.877075,49.955013 281.490448,44.731625 282.146942,32.647503   C282.519165,25.796251 282.519165,25.796251 289.718384,26.440372   C289.718384,73.283142 289.718384,120.169762 289.718384,167.084488   C283.026276,168.989563 282.317505,168.498093 282.111328,161.655380   C281.191956,131.140213 273.394836,102.785324 254.989609,78.014122   C225.564255,38.411129 176.971298,25.826645 135.849319,37.938984   C113.742287,44.450542 100.651611,62.568409 98.807129,85.602745   C96.444099,115.112862 107.008545,139.643509 126.479729,161.032196   C144.480103,180.805237 166.251480,195.890305 188.260773,210.655914   C215.493958,228.926147 243.581558,245.996399 268.080353,268.067780   C290.241486,288.033142 307.730743,310.985687 312.400909,341.340759   C317.054901,371.591187 313.309631,400.505005 295.316864,426.271118   C281.051392,446.699585 260.476532,457.913788 236.973434,463.888397   C204.256195,472.205200 171.058609,473.903809 138.185410,465.636902   C122.820938,461.773041 108.262489,454.704071 92.978882,448.958252  z" data-index="1" style="visibility: visible; opacity: 1;"></path>
<path fill="#9F6EFF" opacity="1.000000" stroke="none" d=" M389.981995,128.071579   C374.055664,100.626190 352.256897,80.023956 323.868378,66.482597   C322.722717,65.936119 321.232941,64.599968 321.169495,63.554893   C320.879730,58.781437 321.042236,53.980534 321.042236,48.241604   C328.717896,49.928940 335.693939,51.248302 342.556641,53.009422   C367.767639,59.479115 391.452271,69.316444 412.416656,85.082848   C441.557648,106.998558 460.305573,136.036270 470.883087,170.597839   C477.442596,192.030670 480.086792,214.054871 481.438263,236.417831   C483.471405,270.060455 480.040710,302.898651 469.562408,334.890564   C451.732819,389.327240 415.847443,427.072968 362.992249,448.786865   C343.686951,456.717804 323.577423,461.770264 302.652954,464.467255   C310.259247,458.639862 314.233154,449.311310 323.649017,445.081818   C364.897980,426.553284 389.666687,393.589447 403.895874,351.766022   C411.597565,329.128662 415.562775,305.749847 417.273407,281.914307   C419.947662,244.651611 418.822845,207.635895 407.876648,171.690659   C403.353699,156.838120 396.136780,142.805923 389.981995,128.071579  z" data-index="2" style="visibility: visible; opacity: 1;"></path>
<path fill="#9F6EFF" opacity="1.000000" stroke="none" d=" M155.240219,423.888367   C139.908356,421.589600 126.171104,416.444946 114.268059,407.065826   C112.706856,405.835663 111.274666,403.326691 111.266998,401.404083   C111.101891,359.945526 111.147362,318.486145 111.164215,277.026917   C111.164413,276.547852 111.323166,276.068848 111.473663,275.218109   C112.288033,275.477417 113.116005,275.543060 113.698746,275.955322   C133.388931,289.884552 153.085831,303.805054 172.659683,317.896393   C173.989227,318.853455 175.078140,321.127472 175.085052,322.793945   C175.222458,355.927490 175.185135,389.061798 175.169998,422.195923   C175.169693,422.850586 175.011139,423.505219 174.789658,425.216644   C168.426971,424.788574 162.052200,424.359711 155.240219,423.888367  z" data-index="3"></path>
<path fill="#9F6EFF" opacity="1.000000" stroke="none" d=" M175.192642,110.000015   C175.192810,127.783104 175.192810,145.066193 175.192810,163.830582   C169.725525,159.276520 165.086884,155.652344 160.717224,151.728622   C146.764099,139.199387 134.971130,125.176048 130.592499,106.299515   C128.647629,97.915039 128.307617,89.517868 130.963989,81.164352   C132.998566,74.766258 136.816833,69.945381 143.185776,67.565414   C154.858963,63.203350 166.814728,63.196968 179.293411,65.309013   C172.613098,79.848640 176.069748,94.856499 175.192642,110.000015  z" data-index="4"></path>
</svg>